<svg xmlns="http://www.w3.org/2000/svg" style="display:none">
  <defs>
    <style>
      symbol path, symbol circle, symbol rect, symbol line, symbol ellipse, symbol polyline, symbol polygon {
        fill: none; stroke: currentColor; stroke-width: 2;
        stroke-linecap: round; stroke-linejoin: round;
      }
      symbol.solid path { fill: currentColor; stroke: none; }
    </style>
  </defs>

  <symbol id="i-shield" viewBox="0 0 24 24">
    <path d="M12 22s8-4 8-10V5l-8-3-8 3v7c0 6 8 10 8 10z"/>
    <path d="M9 12l2 2 4-4"/>
  </symbol>
  <symbol id="i-file" viewBox="0 0 24 24">
    <path d="M14 2H6a2 2 0 0 0-2 2v16a2 2 0 0 0 2 2h12a2 2 0 0 0 2-2V8z"/>
    <path d="M14 2v6h6"/><path d="M16 13H8"/><path d="M16 17H8"/><path d="M10 9H8"/>
  </symbol>
  <symbol id="i-folder" viewBox="0 0 24 24">
    <path d="M22 19a2 2 0 0 1-2 2H4a2 2 0 0 1-2-2V5a2 2 0 0 1 2-2h5l2 3h9a2 2 0 0 1 2 2z"/>
  </symbol>
  <symbol id="i-play" viewBox="0 0 24 24"><path d="M5 3l14 9-14 9V3z"/></symbol>
  <symbol id="i-stop" viewBox="0 0 24 24"><rect x="6" y="6" width="12" height="12" rx="2"/></symbol>
  <symbol id="i-download" viewBox="0 0 24 24">
    <path d="M21 15v4a2 2 0 0 1-2 2H5a2 2 0 0 1-2-2v-4"/><path d="M7 10l5 5 5-5"/><path d="M12 15V3"/>
  </symbol>
  <symbol id="i-search" viewBox="0 0 24 24"><circle cx="11" cy="11" r="8"/><path d="M21 21l-4.35-4.35"/></symbol>
  <symbol id="i-pen" viewBox="0 0 24 24"><path d="M12 20h9"/><path d="M16.5 3.5a2.12 2.12 0 0 1 3 3L7 19l-4 1 1-4 12.5-12.5z"/></symbol>
  <symbol id="i-refresh" viewBox="0 0 24 24">
    <path d="M23 4v6h-6"/><path d="M1 20v-6h6"/>
    <path d="M3.51 9a9 9 0 0 1 14.85-3.36L23 10"/><path d="M1 14l4.64 4.36A9 9 0 0 0 20.49 15"/>
  </symbol>
  <symbol id="i-lock" viewBox="0 0 24 24"><rect x="3" y="11" width="18" height="11" rx="2"/><path d="M7 11V7a5 5 0 0 1 10 0v4"/></symbol>
  <symbol id="i-user" viewBox="0 0 24 24"><path d="M20 21v-2a4 4 0 0 0-4-4H8a4 4 0 0 0-4 4v2"/><circle cx="12" cy="7" r="4"/></symbol>
  <symbol id="i-alert" viewBox="0 0 24 24">
    <path d="M10.29 3.86 1.82 18a2 2 0 0 0 1.71 3h16.94a2 2 0 0 0 1.71-3L13.71 3.86a2 2 0 0 0-3.42 0z"/>
    <path d="M12 9v4"/><path d="M12 17h.01"/>
  </symbol>
  <symbol id="i-link" viewBox="0 0 24 24">
    <path d="M10 13a5 5 0 0 0 7.54.54l3-3a5 5 0 0 0-7.07-7.07l-1.72 1.71"/>
    <path d="M14 11a5 5 0 0 0-7.54-.54l-3 3a5 5 0 0 0 7.07 7.07l1.71-1.71"/>
  </symbol>
  <symbol id="i-logout" viewBox="0 0 24 24"><path d="M9 21H5a2 2 0 0 1-2-2V5a2 2 0 0 1 2-2h4"/><path d="M16 17l5-5-5-5"/><path d="M21 12H9"/></symbol>
  <symbol id="i-plus" viewBox="0 0 24 24"><path d="M12 5v14"/><path d="M5 12h14"/></symbol>
  <symbol id="i-x" viewBox="0 0 24 24"><path d="M18 6 6 18"/><path d="M6 6l12 12"/></symbol>
  <symbol id="i-activity" viewBox="0 0 24 24"><path d="M22 12h-4l-3 9L9 3l-3 9H2"/></symbol>
  <symbol id="i-database" viewBox="0 0 24 24">
    <ellipse cx="12" cy="5" rx="9" ry="3"/>
    <path d="M21 12c0 1.66-4 3-9 3s-9-1.34-9-3"/><path d="M3 5v14c0 1.66 4 3 9 3s9-1.34 9-3V5"/>
  </symbol>
  <symbol id="i-check" viewBox="0 0 24 24"><path d="M20 6 9 17l-5-5"/></symbol>
  <symbol id="i-eye" viewBox="0 0 24 24"><path d="M1 12s4-8 11-8 11 8 11 8-4 8-11 8-11-8-11-8z"/><circle cx="12" cy="12" r="3"/></symbol>
</svg>
